<svg version="1.1" id="Layer_1" xmlns="http://www.w3.org/2000/svg" xmlns:xlink="http://www.w3.org/1999/xlink" x="0px" y="0px"
	 width="100%" viewBox="0 0 512 512" enable-background="new 0 0 512 512" xml:space="preserve">
<path fill="#000000" opacity="1.000000" stroke="none" 
	d="
M119.157120,345.421600 
	C105.774994,349.607361 92.841415,349.218567 80.047401,344.755310 
	C64.562210,339.353302 55.472294,326.393951 54.618362,309.904907 
	C53.921280,296.444489 58.226734,283.974243 61.233337,271.227112 
	C65.353630,253.758286 70.743141,236.576279 73.196983,218.733200 
	C74.015747,212.779556 74.213341,206.790619 72.696045,200.883118 
	C70.460106,192.177567 64.816689,189.964020 57.474834,194.975601 
	C54.036701,197.322525 50.813244,199.993347 47.311100,202.233841 
	C44.938156,203.751892 42.188477,205.095291 39.313931,203.684738 
	C36.158749,202.136475 36.715153,198.984802 36.654247,196.184586 
	C36.475845,187.982635 40.468735,181.842102 46.524639,176.898499 
	C57.206375,168.178711 69.697708,165.408813 83.106804,166.891876 
	C95.932518,168.310410 104.733467,178.082428 107.379471,191.859085 
	C110.221703,206.657394 106.081787,220.551865 102.976662,234.650864 
	C98.331261,255.743652 93.416229,276.766235 92.097969,298.463684 
	C91.149399,314.076385 101.883011,318.208923 113.036125,316.366669 
	C127.583153,313.963776 137.708145,304.670013 146.473022,293.558472 
	C147.954468,291.680389 147.289200,289.830811 146.789749,287.880157 
	C140.305786,262.556610 137.339935,236.769043 138.827148,210.721588 
	C140.303665,184.861572 156.953461,176.588242 178.668701,180.449036 
	C190.371490,182.529709 196.971863,191.765274 197.331985,203.803177 
	C197.821259,220.159775 194.157410,235.835358 189.548340,251.351196 
	C186.082153,263.019653 181.920929,274.437714 176.600632,285.394928 
	C175.168747,288.343903 175.067780,290.975342 176.437057,293.955139 
	C178.602341,298.667175 180.920547,303.264282 184.174820,307.325531 
	C192.711411,317.979004 204.608322,319.829956 216.141357,312.542389 
	C223.260025,308.044189 228.254272,301.682953 232.537918,294.667084 
	C242.579971,278.219940 247.508606,259.979340 251.406708,241.496490 
	C249.579590,239.725586 247.528366,239.664093 245.638168,239.153763 
	C225.084732,233.604721 211.189972,212.670227 214.553619,192.346786 
	C217.326294,175.593948 229.423080,165.270081 246.818649,164.810562 
	C262.753540,164.389618 273.745667,173.730820 277.304901,190.726929 
	C278.502960,196.447845 278.770905,202.260040 278.999664,208.077469 
	C279.076355,210.027740 278.552368,212.071030 279.933929,214.175308 
	C282.791748,213.922302 284.751678,211.546249 287.354889,210.630524 
	C293.427979,208.494247 296.990570,211.349564 295.911255,217.661728 
	C294.511841,225.846115 289.793030,231.760712 282.530121,235.255188 
	C278.122406,237.375900 276.783356,240.417862 276.239899,244.924469 
	C273.102112,270.944214 266.719238,295.950531 251.801483,318.031921 
	C239.330017,336.492310 221.740067,346.267578 199.658981,348.194427 
	C185.172302,349.458618 174.128738,343.329926 165.685425,332.029388 
	C162.534531,327.812225 159.911499,323.200684 156.711975,318.249298 
	C146.297394,330.359497 134.924515,340.665161 119.157120,345.421600 
M167.765167,252.742447 
	C171.311951,242.825577 173.427750,232.558762 174.453491,222.127594 
	C175.018280,216.384018 175.478073,210.471390 173.438782,204.807587 
	C172.796783,203.024521 171.885162,201.412354 169.705933,201.254303 
	C167.278534,201.078262 166.085922,202.660461 165.335236,204.636063 
	C164.867584,205.866760 164.534790,207.167328 164.300766,208.465271 
	C162.113998,220.592773 163.718781,232.680298 164.901474,244.746521 
	C165.228073,248.078735 164.934509,251.647461 166.836212,254.928467 
	C167.165924,254.239594 167.381378,253.789429 167.765167,252.742447 
M255.211945,192.470856 
	C254.070145,189.866165 253.014923,186.774155 249.401291,187.531326 
	C245.784103,188.289276 246.106064,191.652786 246.021805,194.422256 
	C245.961639,196.399231 246.006165,198.438400 246.421463,200.359573 
	C247.591064,205.770279 249.946228,210.417252 255.748978,213.523941 
	C257.063904,206.189941 257.358856,199.703903 255.211945,192.470856 
z"/>
<path fill="#000000" opacity="1.000000" stroke="none" 
	d="
M404.648102,274.064392 
	C400.869812,249.497391 419.021362,232.848755 440.297302,230.794281 
	C446.040588,230.239716 451.942902,230.037628 457.710846,231.308823 
	C477.674957,235.708679 484.948608,256.166107 472.378937,272.479309 
	C468.034393,278.117706 462.544373,282.276520 455.511658,285.250244 
	C458.811859,289.160858 461.708557,292.740051 464.758850,296.183197 
	C480.378387,313.814178 472.570343,337.348785 451.971680,344.697662 
	C433.052246,351.447510 413.871918,351.936340 395.089325,343.467346 
	C391.699646,341.938965 388.565979,339.848755 386.367065,336.937347 
	C383.939270,333.722931 382.127869,334.139313 379.019348,336.131531 
	C360.655060,347.900909 340.313080,351.219360 319.161041,347.774994 
	C299.212158,344.526550 288.294098,331.372620 287.940613,310.432953 
	C287.542389,286.844116 295.259521,265.857086 311.882538,248.800735 
	C324.573120,235.779373 340.342743,229.902481 358.542694,231.790573 
	C367.660461,232.736481 375.309723,236.802963 378.557831,246.037750 
	C382.342682,256.798584 380.519714,266.762604 372.554535,275.186005 
	C365.613495,282.526337 356.513031,286.370209 347.367462,290.029633 
	C341.807007,292.254547 336.148315,294.233002 330.572388,296.420624 
	C324.148590,298.940887 322.697144,302.060211 324.780914,308.755341 
	C325.986877,312.630127 328.537201,315.322388 332.251984,316.993561 
	C343.515350,322.060638 354.714874,320.901733 365.621460,316.170990 
	C373.592987,312.713287 381.109009,308.687866 384.024719,299.203613 
	C385.376495,294.806519 388.900604,291.283173 393.632721,289.603333 
	C398.268341,287.957764 401.393860,289.009521 403.474854,293.513367 
	C405.423492,297.730774 406.926880,302.156403 408.573730,306.510284 
	C413.610870,319.827271 426.203888,327.649933 440.678925,326.198608 
	C440.988068,322.632507 438.755402,320.049316 437.033447,317.379578 
	C432.929932,311.017487 427.069092,306.211517 421.877319,300.822998 
	C416.312164,295.046967 410.926941,289.149200 407.030762,282.082977 
	C405.744965,279.751038 404.941620,277.184906 404.648102,274.064392 
M333.675079,259.189880 
	C329.558868,265.358582 327.760986,272.303711 326.359131,280.512848 
	C333.173828,276.392242 339.507294,273.248138 344.782684,268.431213 
	C347.041473,266.368683 348.338959,263.712860 349.130035,260.754608 
	C350.125397,257.032288 348.507416,254.945038 345.027618,254.253769 
	C340.532227,253.360764 336.909058,255.023468 333.675079,259.189880 
M436.080536,261.437408 
	C438.306305,266.013184 440.746063,270.425262 444.788452,273.649445 
	C447.555511,271.955200 448.974152,269.680115 450.381226,267.485870 
	C452.808228,263.701111 455.502411,259.622406 452.648621,255.110535 
	C449.657623,250.381653 444.647064,251.954834 440.368744,252.528152 
	C434.107758,253.367188 433.591888,254.601135 436.080536,261.437408 
z"/>
</svg>
