<svg version="1.1" id="Layer_1" xmlns="http://www.w3.org/2000/svg" xmlns:xlink="http://www.w3.org/1999/xlink" x="0px" y="0px"
	 width="100%" viewBox="0 0 512 512" enable-background="new 0 0 512 512" xml:space="preserve">
<path fill="#FCFCFC" opacity="1.000000" stroke="none" 
	d="
M82.121933,344.984833 
	C59.886806,336.733459 50.836533,317.964996 56.514252,292.634094 
	C61.457951,270.577972 68.025871,248.914444 72.466850,226.738678 
	C74.242462,217.872299 75.275711,208.920883 72.990585,200.004318 
	C70.840309,191.613953 64.627014,189.390121 57.457287,194.289871 
	C53.888496,196.728775 50.558056,199.523773 46.936897,201.876144 
	C44.568748,203.414551 41.761024,204.678787 38.977814,203.037643 
	C36.423340,201.531403 36.918392,198.693390 36.966690,196.246094 
	C37.126148,188.166000 41.000877,182.014557 47.155926,177.107849 
	C57.166870,169.127304 68.730118,166.156982 81.277000,167.167023 
	C95.385567,168.302765 104.482872,178.066727 107.104034,193.291260 
	C109.268951,205.865738 106.258682,217.741821 103.509926,229.747894 
	C98.461975,251.796417 93.429321,273.848480 91.528625,296.468933 
	C90.215271,312.099182 99.109421,319.929688 114.598648,316.633789 
	C128.802734,313.611359 138.624008,304.415588 147.261490,293.510559 
	C148.522446,291.918579 148.071701,290.384094 147.641022,288.794281 
	C141.150360,264.835022 138.856750,240.377365 138.927200,215.638382 
	C138.936691,212.308258 139.180038,209.015839 139.754944,205.707504 
	C144.116684,180.607864 165.013275,176.948700 181.360825,181.626617 
	C191.052368,184.399918 196.759888,193.408203 196.912048,204.824661 
	C197.118256,220.294388 193.726486,235.195496 189.435379,249.930542 
	C185.760361,262.550018 181.158157,274.832458 175.468262,286.675995 
	C174.411407,288.875854 174.384872,290.652039 175.302917,292.702576 
	C177.613693,297.864014 179.984909,302.984680 183.541351,307.453735 
	C192.296677,318.455719 204.927414,320.558563 216.701416,312.844299 
	C228.210724,305.303497 234.489502,293.750122 239.894913,281.699158 
	C245.420898,269.379333 248.634201,256.296051 251.801666,243.209244 
	C252.699692,239.498871 250.283386,239.621948 248.101730,239.117203 
	C229.259842,234.758194 215.808380,219.498459 214.647263,200.530197 
	C213.065933,174.697693 235.126526,159.926086 259.121033,167.342667 
	C267.499756,169.932510 272.031799,176.871246 275.029968,184.807831 
	C278.780212,194.735352 278.208191,205.102066 278.125793,215.695084 
	C281.208588,215.701736 283.155151,213.489487 285.452179,212.168884 
	C288.223175,210.575775 291.191223,209.596909 293.933441,211.370438 
	C296.657135,213.132004 295.527222,216.258041 295.053284,218.770355 
	C293.458099,227.227249 287.707581,232.429688 280.359863,235.833527 
	C277.295349,237.253189 276.325714,239.004486 275.981964,242.146072 
	C273.060394,268.844269 266.846130,294.541809 251.662201,317.247498 
	C238.270752,337.272797 219.235352,347.281219 195.274078,347.721466 
	C184.457855,347.920227 175.776016,342.944763 168.726044,334.967346 
	C164.851486,330.583099 161.438431,325.823578 159.080750,320.480194 
	C157.460724,316.808655 156.431595,317.453033 154.258621,320.040405 
	C144.909149,331.172821 133.936111,340.174774 119.854172,344.706451 
	C107.471687,348.691193 94.995613,348.714844 82.121933,344.984833 
z"/>
<path fill="#FCFCFC" opacity="1.000000" stroke="none" 
	d="
M293.852844,278.821533 
	C300.258087,262.005463 309.848450,248.182968 325.392059,239.140686 
	C335.488495,233.267242 346.433563,230.920166 357.988037,232.138107 
	C366.721436,233.058685 374.205231,236.784363 377.777252,245.277283 
	C381.650482,254.486343 380.515778,263.598236 374.680817,271.790009 
	C369.373749,279.240570 361.565155,283.460571 353.383759,286.906586 
	C344.974701,290.448486 336.462677,293.762360 327.897186,296.907806 
	C324.803864,298.043732 323.481476,299.496979 323.614471,302.994293 
	C323.951141,311.848663 326.627258,316.129791 335.221954,318.808502 
	C352.106079,324.070801 366.546265,318.300171 379.944550,308.339600 
	C381.271454,307.353119 381.347992,305.779083 381.954132,304.446930 
	C384.166779,299.584412 386.495636,294.770172 390.957397,291.496063 
	C396.005066,287.792053 400.975433,288.985382 403.533386,294.613678 
	C405.110931,298.084717 406.700897,301.623169 407.644226,305.296051 
	C410.866516,317.842316 422.477142,327.885010 441.835297,326.662872 
	C440.194611,320.135925 436.441559,314.971405 431.877686,310.270599 
	C425.499237,303.700775 419.205627,297.057343 413.015350,290.301514 
	C397.778076,273.672089 402.534332,242.876221 430.567291,233.290649 
	C440.394745,229.930252 450.598450,229.832458 460.604218,232.451050 
	C477.128052,236.775513 483.133636,254.760056 473.400757,270.127655 
	C468.897644,277.237793 462.347015,281.902161 454.506104,285.092224 
	C458.204681,289.459290 461.515106,293.626740 465.094940,297.548218 
	C477.654510,311.306396 474.110535,334.005768 455.276520,342.683289 
	C436.949127,351.127380 417.854126,351.047119 398.840942,344.731140 
	C393.769836,343.046570 389.112488,339.990967 385.969849,335.621277 
	C383.377228,332.016357 381.614380,333.882996 379.237885,335.392944 
	C359.057404,348.215027 337.102814,351.346344 314.136078,345.952423 
	C299.410858,342.494110 290.355988,330.503357 288.858582,315.455902 
	C287.613220,302.941162 289.401459,290.917053 293.852844,278.821533 
z"/>
<path fill="#060606" opacity="1.000000" stroke="none" 
	d="
M163.084656,230.843994 
	C163.132553,222.900192 162.272781,215.406036 163.776199,207.994812 
	C164.070206,206.545578 164.530838,205.122574 165.010864,203.720444 
	C165.708679,201.682236 167.031906,200.145355 169.304611,200.183670 
	C171.566666,200.221786 172.839432,201.902084 173.631775,203.806000 
	C174.591110,206.111069 175.020737,208.540634 175.162613,211.063980 
	C175.898331,224.147736 172.091080,244.648895 166.303040,257.566345 
	C164.266388,248.651154 163.901047,239.959732 163.084656,230.843994 
z"/>
<path fill="#0A0A0A" opacity="1.000000" stroke="none" 
	d="
M247.874268,187.082062 
	C252.229263,185.588562 253.991913,188.057907 255.313171,191.179550 
	C258.548187,198.822601 257.090302,206.640182 256.612793,214.673233 
	C246.442398,209.741943 241.984161,195.620346 247.874268,187.082062 
z"/>
<path fill="#060606" opacity="1.000000" stroke="none" 
	d="
M345.066711,269.024170 
	C343.345123,270.373962 341.978882,271.610107 340.451050,272.595825 
	C335.870972,275.550812 331.227814,278.407928 325.665405,281.894958 
	C327.148071,271.965637 328.978699,263.274963 335.395386,256.299194 
	C336.363678,255.246567 337.821289,254.528763 339.182434,253.975754 
	C342.448578,252.648758 345.843781,252.467834 348.492279,255.097260 
	C351.170319,257.756042 350.110962,261.046967 348.794098,263.955048 
	C347.992279,265.725739 346.519531,267.192657 345.066711,269.024170 
z"/>
<path fill="#060606" opacity="1.000000" stroke="none" 
	d="
M452.532349,265.195129 
	C443.912140,277.253601 445.796783,278.327942 437.121765,264.577850 
	C431.209656,255.207077 432.282318,253.352081 442.190247,251.678680 
	C452.670319,249.908630 456.477112,254.663803 452.532349,265.195129 
z"/>
</svg>
